<svg id="Capa_1" enable-background="new 0 0 510.504 510.504" height="512" viewBox="0 0 510.504 510.504" width="512" xmlns="http://www.w3.org/2000/svg"><g><path id="XMLID_2224_" d="m255.34 0c-79.605 0-146.186 51.326-169.371 121.252v46.201l169.304 70.319 169.323-70.319c-3.865-7.021-87.677-167.453-169.256-167.453z" fill="#fcf7e2"/><path d="m424.595 120.907c-24.145-72.318-92.165-120.907-169.255-120.907v237.744l169.255-70.291v-46.201h-1.034z" fill="#f6e486"/><path id="XMLID_2372_" d="m1.455 246.171c8.303-83.464 57.736-132.918 59.455-135.853 3.874-.015 25.624-2.188 55.119 2.348 60.34 9.274 114.538 40.129 152.611 86.879-.005.129-13.227 310.526-13.232 310.656-148.123 6.737-268.46-118.221-253.953-264.03z" fill="#b9e68b"/><path id="XMLID_2371_" d="m157.729 250.445h29.999v167.497h-29.999z" fill="#5fa794" transform="matrix(.891 -.454 .454 .891 -132.847 114.776)"/><path id="XMLID_2375_" d="m248.596 509.902c-2.294-2.975-17.211-18.893-31.293-44.713-50.306-92.244-34.69-205.271 37.979-280.658 36.577-37.946 79.633-54.423 133.663-62.728 30.372-4.668 50.55-2.363 55.12-2.348 2.073 2.551 8.548 9.792 16.182 20.531 81.859 115.216 44.12 260.961-77.458 332.271-60.164 35.289-108.353 38.902-127.5 37.96-3.732-.184-6.047-.377-6.693-.315z" fill="#73ca7a"/><path d="m465.846 130.85c-7.633-10.74-14.107-17.98-16.182-20.531-4.569-.017-24.747-2.321-55.119 2.348-54.011 8.302-102.634 33.921-139.205 71.845v325.708c19.186.941 75.619 1.613 135.74-33.65 121.579-71.312 156.625-230.504 74.766-345.72z" fill="#5fa794"/><path id="XMLID_2240_" d="m362.485 252.758c-6.035 11.823-79.221 155.205-124.574 244.059 5.501 7.164 9.977 12.154 11.088 13.594 1.078-.103 6.406-.006 15.612.082 46.126-90.367 120.778-236.622 124.606-244.121z" fill="#5fa794"/><path d="m362.485 252.758c-5.31 10.403-62.611 122.664-107.195 210.01v47.627c2.443.024 5.552.061 9.321.098 46.126-90.367 120.778-236.622 124.606-244.121z" fill="#488071"/></g></svg>