<svg height="482pt" viewBox="-26 0 482 482.00235" width="482pt" xmlns="http://www.w3.org/2000/svg"><path d="m358.878906 321.621094 71.21875 23.851562-65.707031 35.851563 63.738281 64.117187-34.589844 34.582032-38.460937-38.222657-25.660156-25.507812-26.027344 47.710937-9.820313 18-6.03125-18-62.710937-187.273437zm0 0" fill="#00efd1"/><path d="m277.640625 137.59375h60.058594l21.179687 184.027344-134.050781-44.890625 62.710937 187.273437h-226.089843c-36.570313 0-65.039063-30.050781-61.078125-64.472656l30.128906-261.9375zm0 0" fill="#00acea"/><path d="m277.640625 224.703125c-4.417969 0-8-3.582031-8-8v-122.742187c0-20.679688-8.515625-40.167969-23.976563-54.871094-15.902343-14.988282-36.972656-23.257813-58.824218-23.085938-45.65625 0-82.800782 34.972656-82.800782 77.957032v122.742187c0 4.417969-3.582031 8-8 8-4.417968 0-8-3.582031-8-8v-122.742187c0-51.808594 44.324219-93.95703175 98.800782-93.95703175 25.957031-.17968725 50.980468 9.67187475 69.855468 27.49218775 18.664063 17.753906 28.945313 41.359375 28.945313 66.464844v122.742187c0 4.417969-3.582031 8-8 8zm0 0" fill="#00efd1"/><g fill="#fedb41"><path d="m175.859375 235.761719c-2.121094.003906-4.160156-.839844-5.65625-2.34375l-24.492187-24.488281c-3.121094-3.125-3.121094-8.191407.003906-11.316407 3.121094-3.121093 8.1875-3.121093 11.3125.003907l24.488281 24.488281c2.289063 2.289062 2.972656 5.730469 1.734375 8.71875s-4.15625 4.9375-7.390625 4.9375zm0 0"/><path d="m260.167969 235.363281c-3.996094-.003906-7.375-2.960937-7.914063-6.921875l-6.992187-51.289062c-.5625-4.359375 2.5-8.359375 6.855469-8.953125 4.355468-.59375 8.375 2.441406 9 6.792969l6.988281 51.289062c.597656 4.378906-2.46875 8.410156-6.847657 9.007812-.359374.050782-.722656.074219-1.089843.074219zm0 0"/><path d="m175.46875 320.082031c-.363281 0-.730469-.023437-1.089844-.074219l-51.292968-7c-4.375-.597656-7.441407-4.628906-6.84375-9.007812.597656-4.378906 4.632812-7.441406 9.007812-6.84375l51.292969 7c4.171875.5625 7.191406 4.261719 6.910156 8.464844-.285156 4.199218-3.773437 7.460937-7.984375 7.460937zm0 0"/></g></svg>