<svg id="Capa_1" enable-background="new 0 0 497.571 497.571" height="512" viewBox="0 0 497.571 497.571" width="512" xmlns="http://www.w3.org/2000/svg"><g><path d="m137 75.286h120v152h-120z" fill="#25d4f2"/><path d="m60 75.286h167v152h-167z" fill="#6ee2f6"/><path d="m197 .286-30 75h60v-67.5c0-4.142-3.358-7.5-7.5-7.5h-22.5z" fill="#ff7a3c"/><path d="m90 7.786v67.5h107v-75h-99.5c-4.142 0-7.5 3.358-7.5 7.5z" fill="#ff9a42"/><path d="m167 75.286h60v80h-60z" fill="#ff5a35"/><path d="m90 75.286h107v80h-107z" fill="#ff7a3c"/><path d="m257 135.286h-30l30 362h30c16.569 0 30-13.431 30-30v-272c0-33.137-26.863-60-60-60z" fill="#6ee2f6"/><path d="m227 135.286h-167c-33.137 0-60 26.863-60 60v272c0 16.569 13.431 30 30 30h227c16.569 0 30-13.431 30-30l-30-136 30-136c0-33.137-26.863-60-60-60z" fill="#b6f1fb"/><path d="m257 203.972-60 127.314 60 136h30v-272c-14.651 0-22.618 4.16-30 8.686z" fill="#7cc466"/><path d="m222.748 215.286c-32.126 0-32.126-20-64.252-20-32.124 0-32.124 20-64.249 20-32.124 0-32.124-20-64.247-20v272h227v-263.314c-8.805 5.397-16.777 11.314-34.252 11.314z" fill="#adcb74"/><path d="m272 60.286h-30v30h30c8.284 0 15-6.716 15-15s-6.716-15-15-15z" fill="#6ee2f6"/><path d="m257 75.286c0-8.284-6.716-15-15-15h-197c-8.284 0-15 6.716-15 15s6.716 15 15 15h197c8.284 0 15-6.716 15-15z" fill="#b6f1fb"/><path d="m489.687 316.722c-96.083 4.212-172.687 83.442-172.687 180.563l178.363-178.363c-1.439-1.438-3.457-2.297-5.676-2.2z" fill="#1fb55b"/><path d="m491.919 318.954c-70.051 30.244-147.399 108.73-174.919 178.331 97.121 0 176.351-76.604 180.564-172.687.097-2.219-.762-4.237-2.201-5.675-.624-.624-1.826-.668-3.444.031z" fill="#18966a"/><path d="m144.313 316.722c96.083 4.212 172.687 83.442 172.687 180.563l-178.362-178.362c1.438-1.439 3.456-2.298 5.675-2.201z" fill="#1fb55b"/><path d="m142.081 318.954c70.051 30.244 147.399 108.73 174.919 178.331-97.121 0-176.351-76.604-180.564-172.687-.097-2.219.762-4.237 2.201-5.675.624-.624 1.826-.668 3.444.031z" fill="#18966a"/></g></svg>