<svg id="Layer_1" enable-background="new 0 0 512 512" height="512" viewBox="0 0 512 512" width="512" xmlns="http://www.w3.org/2000/svg"><g><path d="m305.668 138.495c-2.682-3.156-7.416-3.542-10.571-.858l-34.532 29.345c-1.882-4.98-3.255-7.792-3.514-8.309-22.006-44.983-4.674-77.436-3.857-78.916 2.022-3.602.751-8.164-2.848-10.199-3.606-2.038-8.181-.77-10.221 2.836-.919 1.626-22.227 40.42 3.508 92.983.018.036.384.78.992 2.191l-38.142-12.108c-3.946-1.25-8.164.933-9.418 4.879-1.253 3.948.932 8.165 4.879 9.418l48.831 15.501c2.47 8.618 5.077 19.922 6.917 33.708 4.244 31.786 5.164 83.616-14.551 150.027-1.18 3.971 1.084 8.146 5.055 9.324.713.212 1.431.313 2.138.313 3.234 0 6.22-2.109 7.187-5.367 20.603-69.397 19.485-123.77 14.921-157.163-1.852-13.547-4.385-24.82-6.864-33.694l39.233-33.34c3.155-2.681 3.54-7.415.857-10.571z" fill="#68ca44"/><g><path d="m318.995 512h-125.99c-18.982 0-34.975-14.549-37.258-33.893l-20.278-171.799h241.062l-20.278 171.799c-2.283 19.344-18.276 33.893-37.258 33.893z" fill="#e19974"/><path d="m345.626 306.308-20.278 171.799c-2.283 19.344-18.277 33.893-37.258 33.893h30.906c18.981 0 34.975-14.549 37.258-33.893l20.278-171.799z" fill="#dc8758"/></g><ellipse cx="263.121" cy="45.274" fill="#97da7b" rx="48.576" ry="29.847" transform="matrix(.46 -.888 .888 .46 101.855 258.054)"/><path d="m285.458 2.139c-7.564-3.912-17.057-2.276-26.169 3.494 10.145 10.204 10.285 32.404-.562 53.351-5.963 11.515-14.155 20.531-22.68 25.93 1.393 1.4 2.969 2.58 4.737 3.494 14.642 7.572 36.512-5.602 48.849-29.425s10.467-49.272-4.175-56.844z" fill="#80d261"/><path d="m381.682 311.63h-251.364c-9.672 0-17.513-7.841-17.513-17.513 0-9.672 7.841-17.513 17.513-17.513h251.364c9.672 0 17.513 7.841 17.513 17.513 0 9.672-7.841 17.513-17.513 17.513z" fill="#dc8758"/><path d="m381.682 276.604h-30.905c9.672 0 17.513 7.841 17.513 17.513 0 9.672-7.841 17.513-17.513 17.513h30.905c9.672 0 17.513-7.841 17.513-17.513 0-9.673-7.841-17.513-17.513-17.513z" fill="#d77f4a"/><ellipse cx="317.703" cy="130.739" fill="#97da7b" rx="55.905" ry="34.35" transform="matrix(.78 -.626 .626 .78 -11.871 227.74)"/><path d="m361.303 95.747c-7.713-9.621-22.724-11.431-38.898-6.219 3.138 1.485 5.85 3.546 7.993 6.219 11.866 14.802 1.966 42.467-22.114 61.793-8.429 6.765-17.476 11.603-26.187 14.41 14.239 6.739 37.361 1.426 57.093-14.41 24.079-19.325 33.979-46.991 22.113-61.793z" fill="#80d261"/><ellipse cx="175.943" cy="155.823" fill="#97da7b" rx="34.35" ry="55.905" transform="matrix(.276 -.961 .961 .276 -22.39 281.921)"/><path d="m185.396 122.799c-13.855-3.974-27.405-4.372-38.45-1.814 2.496.491 5.014 1.089 7.544 1.814 29.679 8.513 49.506 30.199 44.285 48.438-2.784 9.724-12.128 16.503-24.741 19.425 26.788 5.27 50.871-2.741 55.647-19.425 5.221-18.24-14.606-39.926-44.285-48.438z" fill="#80d261"/></g></svg>